<svg xmlns="http://www.w3.org/2000/svg" width="400" height="615.385"><path d="M263.6 8.6v8.6h-8v2h-11.2v1c0 .933-.133 1-2 1s-2 .067-2 1c0 .8-.2 1-1 1-.733 0-1 .213-1 .8 0 .587-.267.8-1 .8-.933 0-1 .133-1 2 0 1.733-.107 2-.8 2-.763 0-.8.267-.8 5.8v5.8h-1c-.996 0-1 .013-1 3.8V48h-17.6v1c0 .996-.013 1-3.8 1s-3.8.004-3.8 1c0 .8-.2 1-1 1s-1 .2-1 1c0 .733-.213 1-.8 1-.744 0-.8.267-.8 3.8 0 3.787-.004 3.8-1 3.8h-1v17.2h-21.2v1c0 .971-.08 1-2.8 1-2.72 0-2.8.029-2.8 1 0 .8-.2 1-1 1-.971 0-1 .08-1 2.8 0 2.72-.029 2.8-1 2.8h-1v21.2H150v1c0 .971-.08 1-2.8 1-2.72 0-2.8.029-2.8 1 0 .8-.2 1-1 1-.971 0-1 .08-1 2.8 0 2.72-.029 2.8-1 2.8h-1v21.2h-23.2v1c0 .919-.147 1-1.8 1-1.533 0-1.8.119-1.8.8 0 .587-.267.8-1 .8-.933 0-1 .133-1 2s-.067 2-1 2h-1v23.2H84.8v1c0 .933-.133 1-2 1h-2v1.8c0 1.653-.081 1.8-1 1.8h-1V202H66.4c-12.133 0-12.4.017-12.4.8 0 .693-.267.8-2 .8h-2v2c0 1.867-.067 2-1 2h-1v25.2H34.6c-13.133 0-13.4.016-13.4.8 0 .587-.267.8-1 .8-.8 0-1 .2-1 1s-.2 1-1 1h-1v26.8H0v90.4h17.2v27.2h1c.733 0 1 .213 1 .8 0 .587.267.8 1 .8.8 0 1 .2 1 1v1H48v27.2h1c.733 0 1 .213 1 .8 0 .587.267.8 1 .8.8 0 1 .2 1 1v1h26.8V442h1c.8 0 1 .2 1 1s.2 1 1 1 1 .2 1 1v1h26.8v25.2h1c.919 0 1 .147 1 1.8v1.8h1.8c1.653 0 1.8.081 1.8 1v1h25.2v24.8h1c.933 0 1 .133 1 2v2h1.8c1.653 0 1.8.081 1.8 1v1h25.2v23.2h1c.919 0 1 .147 1 1.8s.081 1.8 1 1.8c.8 0 1 .2 1 1 0 .919.147 1 1.8 1s1.8.081 1.8 1v1H202v21.2h1c.971 0 1 .08 1 2.8 0 2.533.076 2.8.8 2.8.587 0 .8.267.8 1 0 .978.067 1 3 1s3 .022 3 1v1h21.2v17.2h1c.996 0 1 .013 1 3.8 0 3.533.056 3.8.8 3.8.587 0 .8.267.8 1 0 .8.2 1 1 1s1 .2 1 1c0 .996.013 1 3.8 1s3.8.004 3.8 1v1h17.6v15.2h121.2V600H400V480.8h-15.2v-2H354V450h-1c-.8 0-1-.2-1-1v-1h-28.8v-28.8h-1c-.8 0-1-.2-1-1v-1h-28.8v-28.8h-1c-.8 0-1-.2-1-1v-1h-28.8v-28.8h-1c-.8 0-1-.2-1-1v-1h-28.8v-26.8h-1c-.8 0-1-.2-1-1s-.2-1-1-1-1-.2-1-1v-1H200v-32.4h28.8v-1c0-.8.2-1 1-1h1v-28.8h28.8v-1c0-.8.2-1 1-1h1v-28.8h28.8v-1c0-.8.2-1 1-1h1V200h28.8v-1c0-.8.2-1 1-1h1v-28.8H352v-1c0-.8.2-1 1-1h1v-28.8h46V17.2h-15.2V0H263.6v8.6" fill="#04cc24" fill-rule="evenodd"/></svg>