<svg xmlns="http://www.w3.org/2000/svg" width="400" height="615.385"><path d="M17.2 8.6v8.6H0v119.2h17.2v2H48v28.8h1c.8 0 1 .2 1 1v1h28.8V198h1c.8 0 1 .2 1 1v1h28.8v28.8h1c.8 0 1 .2 1 1v1h28.8v28.8h1c.8 0 1 .2 1 1v1h28.8v26.8h1c.8 0 1 .2 1 1s.2 1 1 1 1 .2 1 1v1H202v32.4h-26.8v1c0 .8-.2 1-1 1s-1 .2-1 1-.2 1-1 1h-1v26.8h-26.8v1c0 .8-.2 1-1 1s-1 .2-1 1-.2 1-1 1h-1v26.8h-28.8v1c0 .8-.2 1-1 1h-1v28.8H80.8v1c0 .8-.2 1-1 1h-1V448H50v1c0 .8-.2 1-1 1h-1v28.8H19.2v1c0 .8-.2 1-1 1-.919 0-1 .147-1 1.8v1.8H0V600h17.2v15.2h121.2V600h21.2v-1c0-.971.08-1 2.8-1 2.72 0 2.8-.029 2.8-1 0-.8.2-1 1-1 .971 0 1-.08 1-2.8 0-2.72.029-2.8 1-2.8h1v-21.2h23.2v-1c0-.919.147-1 1.8-1s1.8-.081 1.8-1c0-.8.2-1 1-1 .933 0 1-.133 1-2s.067-2 1-2h1v-22.8h25.2v-1c0-.919.147-1 1.8-1h1.8v-2c0-1.867.067-2 1-2h1v-24.8h24.8v-1c0-.933.133-1 2-1h2v-2c0-1.867.067-2 1-2h1v-24.8h26.8v-1c0-.8.2-1 1-1s1-.2 1-1 .2-1 1-1h1V446h26.8v-1c0-.8.2-1 1-1s1-.2 1-1 .2-1 1-1h1v-26.8H350v-1c0-.8.2-1 1-1 .733 0 1-.213 1-.8 0-.587.267-.8 1-.8h1v-27.2h26.8v-1c0-.8.2-1 1-1 .733 0 1-.213 1-.8 0-.587.267-.8 1-.8h1v-27.2H400v-90.4h-15.2v-26.8h-1c-.8 0-1-.2-1-1s-.2-1-1-1c-.733 0-1-.213-1-.8 0-.784-.267-.8-13.4-.8H354v-27.2h-1c-.8 0-1-.2-1-1s-.2-1-1-1c-.733 0-1-.213-1-.8 0-.784-.267-.8-13.4-.8h-13.4v-27.2h-1c-.733 0-1-.213-1-.8 0-.587-.267-.8-1-.8-.8 0-1-.2-1-1v-1h-26.8V146h-1c-.919 0-1-.147-1-1.8v-1.8h-2c-1.867 0-2-.067-2-1v-1h-24.8v-25.2h-1c-.919 0-1-.147-1-1.8v-1.8h-2c-1.867 0-2-.067-2-1v-1h-24.8V86.4h-1c-.919 0-1-.147-1-1.8s-.081-1.8-1-1.8c-.8 0-1-.2-1-1 0-.919-.147-1-1.8-1s-1.8-.081-1.8-1v-1H200V57.6h-1c-.971 0-1-.08-1-2.8 0-2.72-.029-2.8-1-2.8-.8 0-1-.2-1-1 0-.971-.08-1-2.8-1-2.72 0-2.8-.029-2.8-1v-1h-21.2V30.8h-1c-.996 0-1-.013-1-3.8s-.004-3.8-1-3.8c-.8 0-1-.2-1-1 0-.733-.213-1-.8-1-.587 0-.8-.267-.8-1v-1h-8v-2h-17.2V0H17.2v8.6" fill="#04cc24" fill-rule="evenodd"/></svg>