<svg id="svg" version="1.1" xmlns="http://www.w3.org/2000/svg" xmlns:xlink="http://www.w3.org/1999/xlink" width="400" height="615.3846153846154" viewBox="0, 0, 400,615.3846153846154"><g id="svgg"><path id="path0" d="M263.600 8.600 L 263.600 17.200 259.600 17.200 L 255.600 17.200 255.600 18.200 L 255.600 19.200 250.000 19.200 L 244.400 19.200 244.400 20.200 C 244.400 21.133,244.267 21.200,242.400 21.200 C 240.533 21.200,240.400 21.267,240.400 22.200 C 240.400 23.000,240.200 23.200,239.400 23.200 C 238.667 23.200,238.400 23.413,238.400 24.000 C 238.400 24.587,238.133 24.800,237.400 24.800 C 236.467 24.800,236.400 24.933,236.400 26.800 C 236.400 28.533,236.293 28.800,235.600 28.800 C 234.837 28.800,234.800 29.067,234.800 34.600 L 234.800 40.400 233.800 40.400 C 232.804 40.400,232.800 40.413,232.800 44.200 L 232.800 48.000 224.000 48.000 L 215.200 48.000 215.200 49.000 C 215.200 49.996,215.187 50.000,211.400 50.000 C 207.613 50.000,207.600 50.004,207.600 51.000 C 207.600 51.800,207.400 52.000,206.600 52.000 C 205.800 52.000,205.600 52.200,205.600 53.000 C 205.600 53.733,205.387 54.000,204.800 54.000 C 204.056 54.000,204.000 54.267,204.000 57.800 C 204.000 61.587,203.996 61.600,203.000 61.600 L 202.000 61.600 202.000 70.200 L 202.000 78.800 191.400 78.800 L 180.800 78.800 180.800 79.800 C 180.800 80.771,180.720 80.800,178.000 80.800 C 175.280 80.800,175.200 80.829,175.200 81.800 C 175.200 82.600,175.000 82.800,174.200 82.800 C 173.229 82.800,173.200 82.880,173.200 85.600 C 173.200 88.320,173.171 88.400,172.200 88.400 L 171.200 88.400 171.200 99.000 L 171.200 109.600 160.600 109.600 L 150.000 109.600 150.000 110.600 C 150.000 111.571,149.920 111.600,147.200 111.600 C 144.480 111.600,144.400 111.629,144.400 112.600 C 144.400 113.400,144.200 113.600,143.400 113.600 C 142.429 113.600,142.400 113.680,142.400 116.400 C 142.400 119.120,142.371 119.200,141.400 119.200 L 140.400 119.200 140.400 129.800 L 140.400 140.400 128.800 140.400 L 117.200 140.400 117.200 141.400 C 117.200 142.319,117.053 142.400,115.400 142.400 C 113.867 142.400,113.600 142.519,113.600 143.200 C 113.600 143.787,113.333 144.000,112.600 144.000 C 111.667 144.000,111.600 144.133,111.600 146.000 C 111.600 147.867,111.533 148.000,110.600 148.000 L 109.600 148.000 109.600 159.600 L 109.600 171.200 97.200 171.200 L 84.800 171.200 84.800 172.200 C 84.800 173.133,84.667 173.200,82.800 173.200 L 80.800 173.200 80.800 175.000 C 80.800 176.653,80.719 176.800,79.800 176.800 L 78.800 176.800 78.800 189.400 L 78.800 202.000 66.400 202.000 C 54.267 202.000,54.000 202.017,54.000 202.800 C 54.000 203.493,53.733 203.600,52.000 203.600 L 50.000 203.600 50.000 205.600 C 50.000 207.467,49.933 207.600,49.000 207.600 L 48.000 207.600 48.000 220.200 L 48.000 232.800 34.600 232.800 C 21.467 232.800,21.200 232.816,21.200 233.600 C 21.200 234.187,20.933 234.400,20.200 234.400 C 19.400 234.400,19.200 234.600,19.200 235.400 C 19.200 236.200,19.000 236.400,18.200 236.400 L 17.200 236.400 17.200 249.800 L 17.200 263.200 8.600 263.200 L 0.000 263.200 0.000 308.400 L 0.000 353.600 8.600 353.600 L 17.200 353.600 17.200 367.200 L 17.200 380.800 18.200 380.800 C 18.933 380.800,19.200 381.013,19.200 381.600 C 19.200 382.187,19.467 382.400,20.200 382.400 C 21.000 382.400,21.200 382.600,21.200 383.400 L 21.200 384.400 34.600 384.400 L 48.000 384.400 48.000 398.000 L 48.000 411.600 49.000 411.600 C 49.733 411.600,50.000 411.813,50.000 412.400 C 50.000 412.987,50.267 413.200,51.000 413.200 C 51.800 413.200,52.000 413.400,52.000 414.200 L 52.000 415.200 65.400 415.200 L 78.800 415.200 78.800 428.600 L 78.800 442.000 79.800 442.000 C 80.600 442.000,80.800 442.200,80.800 443.000 C 80.800 443.800,81.000 444.000,81.800 444.000 C 82.600 444.000,82.800 444.200,82.800 445.000 L 82.800 446.000 96.200 446.000 L 109.600 446.000 109.600 458.600 L 109.600 471.200 110.600 471.200 C 111.519 471.200,111.600 471.347,111.600 473.000 L 111.600 474.800 113.400 474.800 C 115.053 474.800,115.200 474.881,115.200 475.800 L 115.200 476.800 127.800 476.800 L 140.400 476.800 140.400 489.200 L 140.400 501.600 141.400 501.600 C 142.333 501.600,142.400 501.733,142.400 503.600 L 142.400 505.600 144.200 505.600 C 145.853 505.600,146.000 505.681,146.000 506.600 L 146.000 507.600 158.600 507.600 L 171.200 507.600 171.200 519.200 L 171.200 530.800 172.200 530.800 C 173.119 530.800,173.200 530.947,173.200 532.600 C 173.200 534.253,173.281 534.400,174.200 534.400 C 175.000 534.400,175.200 534.600,175.200 535.400 C 175.200 536.319,175.347 536.400,177.000 536.400 C 178.653 536.400,178.800 536.481,178.800 537.400 L 178.800 538.400 190.400 538.400 L 202.000 538.400 202.000 549.000 L 202.000 559.600 203.000 559.600 C 203.971 559.600,204.000 559.680,204.000 562.400 C 204.000 564.933,204.076 565.200,204.800 565.200 C 205.387 565.200,205.600 565.467,205.600 566.200 C 205.600 567.178,205.667 567.200,208.600 567.200 C 211.533 567.200,211.600 567.222,211.600 568.200 L 211.600 569.200 222.200 569.200 L 232.800 569.200 232.800 577.800 L 232.800 586.400 233.800 586.400 C 234.796 586.400,234.800 586.413,234.800 590.200 C 234.800 593.733,234.856 594.000,235.600 594.000 C 236.187 594.000,236.400 594.267,236.400 595.000 C 236.400 595.800,236.600 596.000,237.400 596.000 C 238.200 596.000,238.400 596.200,238.400 597.000 C 238.400 597.996,238.413 598.000,242.200 598.000 C 245.987 598.000,246.000 598.004,246.000 599.000 L 246.000 600.000 254.800 600.000 L 263.600 600.000 263.600 607.600 L 263.600 615.200 324.200 615.200 L 384.800 615.200 384.800 607.600 L 384.800 600.000 392.400 600.000 L 400.000 600.000 400.000 540.400 L 400.000 480.800 392.400 480.800 L 384.800 480.800 384.800 479.800 L 384.800 478.800 369.400 478.800 L 354.000 478.800 354.000 464.400 L 354.000 450.000 353.000 450.000 C 352.200 450.000,352.000 449.800,352.000 449.000 L 352.000 448.000 337.600 448.000 L 323.200 448.000 323.200 433.600 L 323.200 419.200 322.200 419.200 C 321.400 419.200,321.200 419.000,321.200 418.200 L 321.200 417.200 306.800 417.200 L 292.400 417.200 292.400 402.800 L 292.400 388.400 291.400 388.400 C 290.600 388.400,290.400 388.200,290.400 387.400 L 290.400 386.400 276.000 386.400 L 261.600 386.400 261.600 372.000 L 261.600 357.600 260.600 357.600 C 259.800 357.600,259.600 357.400,259.600 356.600 L 259.600 355.600 245.200 355.600 L 230.800 355.600 230.800 342.200 L 230.800 328.800 229.800 328.800 C 229.000 328.800,228.800 328.600,228.800 327.800 C 228.800 327.000,228.600 326.800,227.800 326.800 C 227.000 326.800,226.800 326.600,226.800 325.800 L 226.800 324.800 213.400 324.800 L 200.000 324.800 200.000 308.600 L 200.000 292.400 214.400 292.400 L 228.800 292.400 228.800 291.400 C 228.800 290.600,229.000 290.400,229.800 290.400 L 230.800 290.400 230.800 276.000 L 230.800 261.600 245.200 261.600 L 259.600 261.600 259.600 260.600 C 259.600 259.800,259.800 259.600,260.600 259.600 L 261.600 259.600 261.600 245.200 L 261.600 230.800 276.000 230.800 L 290.400 230.800 290.400 229.800 C 290.400 229.000,290.600 228.800,291.400 228.800 L 292.400 228.800 292.400 214.400 L 292.400 200.000 306.800 200.000 L 321.200 200.000 321.200 199.000 C 321.200 198.200,321.400 198.000,322.200 198.000 L 323.200 198.000 323.200 183.600 L 323.200 169.200 337.600 169.200 L 352.000 169.200 352.000 168.200 C 352.000 167.400,352.200 167.200,353.000 167.200 L 354.000 167.200 354.000 152.800 L 354.000 138.400 377.000 138.400 L 400.000 138.400 400.000 77.800 L 400.000 17.200 392.400 17.200 L 384.800 17.200 384.800 8.600 L 384.800 0.000 324.200 0.000 L 263.600 0.000 263.600 8.600 " stroke="none" fill="#04cc24" fill-rule="evenodd"></path><path id="path1" d="" stroke="none" fill="#08cc24" fill-rule="evenodd"></path><path id="path2" d="" stroke="none" fill="#08cc24" fill-rule="evenodd"></path><path id="path3" d="" stroke="none" fill="#08cc24" fill-rule="evenodd"></path><path id="path4" d="" stroke="none" fill="#08cc24" fill-rule="evenodd"></path></g></svg>