<svg id="svg" version="1.1" xmlns="http://www.w3.org/2000/svg" xmlns:xlink="http://www.w3.org/1999/xlink" width="400" height="615.3846153846154" viewBox="0, 0, 400,615.3846153846154"><g id="svgg"><path id="path0" d="M17.200 8.600 L 17.200 17.200 8.600 17.200 L 0.000 17.200 0.000 76.800 L 0.000 136.400 8.600 136.400 L 17.200 136.400 17.200 137.400 L 17.200 138.400 32.600 138.400 L 48.000 138.400 48.000 152.800 L 48.000 167.200 49.000 167.200 C 49.800 167.200,50.000 167.400,50.000 168.200 L 50.000 169.200 64.400 169.200 L 78.800 169.200 78.800 183.600 L 78.800 198.000 79.800 198.000 C 80.600 198.000,80.800 198.200,80.800 199.000 L 80.800 200.000 95.200 200.000 L 109.600 200.000 109.600 214.400 L 109.600 228.800 110.600 228.800 C 111.400 228.800,111.600 229.000,111.600 229.800 L 111.600 230.800 126.000 230.800 L 140.400 230.800 140.400 245.200 L 140.400 259.600 141.400 259.600 C 142.200 259.600,142.400 259.800,142.400 260.600 L 142.400 261.600 156.800 261.600 L 171.200 261.600 171.200 275.000 L 171.200 288.400 172.200 288.400 C 173.000 288.400,173.200 288.600,173.200 289.400 C 173.200 290.200,173.400 290.400,174.200 290.400 C 175.000 290.400,175.200 290.600,175.200 291.400 L 175.200 292.400 188.600 292.400 L 202.000 292.400 202.000 308.600 L 202.000 324.800 188.600 324.800 L 175.200 324.800 175.200 325.800 C 175.200 326.600,175.000 326.800,174.200 326.800 C 173.400 326.800,173.200 327.000,173.200 327.800 C 173.200 328.600,173.000 328.800,172.200 328.800 L 171.200 328.800 171.200 342.200 L 171.200 355.600 157.800 355.600 L 144.400 355.600 144.400 356.600 C 144.400 357.400,144.200 357.600,143.400 357.600 C 142.600 357.600,142.400 357.800,142.400 358.600 C 142.400 359.400,142.200 359.600,141.400 359.600 L 140.400 359.600 140.400 373.000 L 140.400 386.400 126.000 386.400 L 111.600 386.400 111.600 387.400 C 111.600 388.200,111.400 388.400,110.600 388.400 L 109.600 388.400 109.600 402.800 L 109.600 417.200 95.200 417.200 L 80.800 417.200 80.800 418.200 C 80.800 419.000,80.600 419.200,79.800 419.200 L 78.800 419.200 78.800 433.600 L 78.800 448.000 64.400 448.000 L 50.000 448.000 50.000 449.000 C 50.000 449.800,49.800 450.000,49.000 450.000 L 48.000 450.000 48.000 464.400 L 48.000 478.800 33.600 478.800 L 19.200 478.800 19.200 479.800 C 19.200 480.600,19.000 480.800,18.200 480.800 C 17.281 480.800,17.200 480.947,17.200 482.600 L 17.200 484.400 8.600 484.400 L 0.000 484.400 0.000 542.200 L 0.000 600.000 8.600 600.000 L 17.200 600.000 17.200 607.600 L 17.200 615.200 77.800 615.200 L 138.400 615.200 138.400 607.600 L 138.400 600.000 149.000 600.000 L 159.600 600.000 159.600 599.000 C 159.600 598.029,159.680 598.000,162.400 598.000 C 165.120 598.000,165.200 597.971,165.200 597.000 C 165.200 596.200,165.400 596.000,166.200 596.000 C 167.171 596.000,167.200 595.920,167.200 593.200 C 167.200 590.480,167.229 590.400,168.200 590.400 L 169.200 590.400 169.200 579.800 L 169.200 569.200 180.800 569.200 L 192.400 569.200 192.400 568.200 C 192.400 567.281,192.547 567.200,194.200 567.200 C 195.853 567.200,196.000 567.119,196.000 566.200 C 196.000 565.400,196.200 565.200,197.000 565.200 C 197.933 565.200,198.000 565.067,198.000 563.200 C 198.000 561.333,198.067 561.200,199.000 561.200 L 200.000 561.200 200.000 549.800 L 200.000 538.400 212.600 538.400 L 225.200 538.400 225.200 537.400 C 225.200 536.481,225.347 536.400,227.000 536.400 L 228.800 536.400 228.800 534.400 C 228.800 532.533,228.867 532.400,229.800 532.400 L 230.800 532.400 230.800 520.000 L 230.800 507.600 243.200 507.600 L 255.600 507.600 255.600 506.600 C 255.600 505.667,255.733 505.600,257.600 505.600 L 259.600 505.600 259.600 503.600 C 259.600 501.733,259.667 501.600,260.600 501.600 L 261.600 501.600 261.600 489.200 L 261.600 476.800 275.000 476.800 L 288.400 476.800 288.400 475.800 C 288.400 475.000,288.600 474.800,289.400 474.800 C 290.200 474.800,290.400 474.600,290.400 473.800 C 290.400 473.000,290.600 472.800,291.400 472.800 L 292.400 472.800 292.400 459.400 L 292.400 446.000 305.800 446.000 L 319.200 446.000 319.200 445.000 C 319.200 444.200,319.400 444.000,320.200 444.000 C 321.000 444.000,321.200 443.800,321.200 443.000 C 321.200 442.200,321.400 442.000,322.200 442.000 L 323.200 442.000 323.200 428.600 L 323.200 415.200 336.600 415.200 L 350.000 415.200 350.000 414.200 C 350.000 413.400,350.200 413.200,351.000 413.200 C 351.733 413.200,352.000 412.987,352.000 412.400 C 352.000 411.813,352.267 411.600,353.000 411.600 L 354.000 411.600 354.000 398.000 L 354.000 384.400 367.400 384.400 L 380.800 384.400 380.800 383.400 C 380.800 382.600,381.000 382.400,381.800 382.400 C 382.533 382.400,382.800 382.187,382.800 381.600 C 382.800 381.013,383.067 380.800,383.800 380.800 L 384.800 380.800 384.800 367.200 L 384.800 353.600 392.400 353.600 L 400.000 353.600 400.000 308.400 L 400.000 263.200 392.400 263.200 L 384.800 263.200 384.800 249.800 L 384.800 236.400 383.800 236.400 C 383.000 236.400,382.800 236.200,382.800 235.400 C 382.800 234.600,382.600 234.400,381.800 234.400 C 381.067 234.400,380.800 234.187,380.800 233.600 C 380.800 232.816,380.533 232.800,367.400 232.800 L 354.000 232.800 354.000 219.200 L 354.000 205.600 353.000 205.600 C 352.200 205.600,352.000 205.400,352.000 204.600 C 352.000 203.800,351.800 203.600,351.000 203.600 C 350.267 203.600,350.000 203.387,350.000 202.800 C 350.000 202.016,349.733 202.000,336.600 202.000 L 323.200 202.000 323.200 188.400 L 323.200 174.800 322.200 174.800 C 321.467 174.800,321.200 174.587,321.200 174.000 C 321.200 173.413,320.933 173.200,320.200 173.200 C 319.400 173.200,319.200 173.000,319.200 172.200 L 319.200 171.200 305.800 171.200 L 292.400 171.200 292.400 158.600 L 292.400 146.000 291.400 146.000 C 290.481 146.000,290.400 145.853,290.400 144.200 L 290.400 142.400 288.400 142.400 C 286.533 142.400,286.400 142.333,286.400 141.400 L 286.400 140.400 274.000 140.400 L 261.600 140.400 261.600 127.800 L 261.600 115.200 260.600 115.200 C 259.681 115.200,259.600 115.053,259.600 113.400 L 259.600 111.600 257.600 111.600 C 255.733 111.600,255.600 111.533,255.600 110.600 L 255.600 109.600 243.200 109.600 L 230.800 109.600 230.800 98.000 L 230.800 86.400 229.800 86.400 C 228.881 86.400,228.800 86.253,228.800 84.600 C 228.800 82.947,228.719 82.800,227.800 82.800 C 227.000 82.800,226.800 82.600,226.800 81.800 C 226.800 80.881,226.653 80.800,225.000 80.800 C 223.347 80.800,223.200 80.719,223.200 79.800 L 223.200 78.800 211.600 78.800 L 200.000 78.800 200.000 68.200 L 200.000 57.600 199.000 57.600 C 198.029 57.600,198.000 57.520,198.000 54.800 C 198.000 52.080,197.971 52.000,197.000 52.000 C 196.200 52.000,196.000 51.800,196.000 51.000 C 196.000 50.029,195.920 50.000,193.200 50.000 C 190.480 50.000,190.400 49.971,190.400 49.000 L 190.400 48.000 179.800 48.000 L 169.200 48.000 169.200 39.400 L 169.200 30.800 168.200 30.800 C 167.204 30.800,167.200 30.787,167.200 27.000 C 167.200 23.213,167.196 23.200,166.200 23.200 C 165.400 23.200,165.200 23.000,165.200 22.200 C 165.200 21.467,164.987 21.200,164.400 21.200 C 163.813 21.200,163.600 20.933,163.600 20.200 L 163.600 19.200 159.600 19.200 L 155.600 19.200 155.600 18.200 L 155.600 17.200 147.000 17.200 L 138.400 17.200 138.400 8.600 L 138.400 0.000 77.800 0.000 L 17.200 0.000 17.200 8.600 " stroke="none" fill="#04cc24" fill-rule="evenodd"></path><path id="path1" d="" stroke="none" fill="#08cc24" fill-rule="evenodd"></path><path id="path2" d="" stroke="none" fill="#08cc24" fill-rule="evenodd"></path><path id="path3" d="" stroke="none" fill="#08cc24" fill-rule="evenodd"></path><path id="path4" d="" stroke="none" fill="#08cc24" fill-rule="evenodd"></path></g></svg>